<?xml version="1.0" standalone="no"?>
<!DOCTYPE svg PUBLIC "-//W3C//DTD SVG 20010904//EN"
 "http://www.w3.org/TR/2001/REC-SVG-20010904/DTD/svg10.dtd">
<svg version="1.0" xmlns="http://www.w3.org/2000/svg"
 width="471.000000pt" height="530.000000pt" viewBox="0 0 471.000000 530.000000"
 preserveAspectRatio="xMidYMid meet">

<g transform="translate(0.000000,530.000000) scale(0.100000,-0.100000)"
fill="#000000" stroke="none">
<path d="M2155 4698 c4 -40 8 -81 8 -90 1 -19 22 -24 32 -8 3 5 1 46 -6 90 -8
60 -15 80 -27 80 -13 0 -14 -11 -7 -72z"/>
<path d="M2343 4685 c-27 -58 -36 -85 -26 -85 7 0 12 3 11 8 -4 13 13 52 22
52 5 0 7 6 4 13 -2 7 2 21 10 32 14 19 15 19 21 -10 3 -17 10 -38 16 -47 5
-10 9 -25 9 -33 0 -9 9 -15 21 -15 13 0 19 5 16 13 -2 6 -15 45 -28 85 -12 39
-26 72 -29 72 -3 0 -24 -38 -47 -85z"/>
<path d="M2036 4751 c-4 -5 -1 -44 5 -87 8 -62 8 -79 -3 -86 -9 -7 -8 -8 5 -4
10 3 28 6 40 6 13 0 17 3 11 8 -7 4 -15 44 -19 90 -5 58 -11 82 -20 82 -8 0
-16 -4 -19 -9z"/>
<path d="M2515 4708 c-4 -29 -10 -68 -15 -85 -6 -23 -5 -33 3 -33 7 0 13 21
15 52 5 88 15 89 63 7 51 -87 48 -83 53 -78 9 9 32 170 25 175 -4 2 -10 -18
-14 -44 -10 -76 -18 -76 -55 -6 -44 81 -65 85 -75 12z"/>
<path d="M1920 4736 c0 -2 9 -6 20 -9 11 -3 20 -1 20 4 0 5 -9 9 -20 9 -11 0
-20 -2 -20 -4z"/>
<path d="M1866 4704 c-16 -17 -26 -38 -26 -56 0 -36 24 -83 45 -92 29 -11 81
-6 101 9 18 14 17 14 -8 5 -41 -14 -76 3 -94 46 -17 40 -13 74 12 98 8 9 11
16 6 16 -5 0 -21 -12 -36 -26z"/>
<path d="M2728 4662 c-9 -37 -20 -77 -23 -88 -5 -17 -2 -22 18 -26 18 -4 24
-1 20 9 -5 13 8 79 26 126 8 19 15 24 31 20 61 -16 59 -116 -3 -153 -25 -16
-28 -20 -12 -20 31 0 84 37 91 63 12 52 1 81 -41 103 -22 12 -51 24 -65 27
-24 6 -26 2 -42 -61z"/>
<path d="M1711 4671 c-11 -7 -9 -10 10 -13 39 -5 37 -77 -2 -78 -3 0 -12 18
-19 40 -9 28 -18 39 -28 35 -7 -3 -15 -5 -16 -5 -2 0 10 -38 27 -84 22 -64 33
-83 44 -79 9 4 12 13 9 24 -3 11 -9 28 -12 39 -9 28 12 26 48 -5 28 -24 68
-34 68 -17 0 4 -19 20 -41 36 -37 26 -39 30 -25 45 20 22 20 35 0 55 -17 18
-42 20 -63 7z"/>
<path d="M2992 4550 l-38 -79 49 -21 c58 -25 86 -21 122 18 37 39 31 110 -10
126 -13 5 -14 2 -5 -15 25 -46 -20 -129 -71 -129 -17 0 -32 6 -35 15 -3 8 9
46 28 84 32 67 32 81 2 81 -2 0 -21 -36 -42 -80z"/>
<path d="M1520 4551 c0 -22 5 -43 12 -47 7 -4 8 -3 4 4 -4 7 -4 17 -1 23 8 12
85 -59 85 -78 0 -10 6 -10 23 -2 23 10 22 12 -43 75 -37 35 -70 64 -73 64 -4
0 -7 -18 -7 -39z"/>
<path d="M1400 4526 c0 -2 7 -9 15 -16 13 -11 14 -10 9 4 -5 14 -24 23 -24 12z"/>
<path d="M2146 4483 c21 -27 53 -66 71 -89 18 -23 33 -47 33 -54 0 -7 -16 -33
-35 -56 -19 -24 -51 -64 -71 -89 l-36 -45 133 0 134 0 70 90 c39 49 70 94 70
99 0 6 -31 51 -70 101 l-69 90 -134 0 -134 0 38 -47z"/>
<path d="M1353 4499 l-32 -20 46 -72 c25 -40 47 -73 49 -75 1 -2 22 9 48 25
35 22 43 32 36 43 -8 13 -10 12 -10 -2 0 -10 -10 -23 -22 -29 -19 -10 -25 -8
-46 16 -23 27 -23 29 -7 42 10 7 22 10 27 6 6 -3 5 4 -1 16 -7 11 -15 21 -18
21 -3 0 -3 -3 0 -7 8 -7 -11 -33 -24 -33 -5 0 -15 13 -23 28 -13 26 -13 31 2
45 22 22 14 21 -25 -4z"/>
<path d="M3196 4454 c-42 -31 -75 -59 -72 -62 3 -3 15 3 26 13 28 25 70 7 70
-30 0 -14 -5 -25 -12 -25 -6 0 -3 -7 8 -15 26 -20 29 -19 31 8 1 12 10 53 19
90 9 37 14 70 12 73 -3 2 -40 -21 -82 -52z m44 9 c0 -18 -13 -53 -19 -53 -3 0
-13 4 -21 10 -12 7 -12 12 4 29 19 21 36 27 36 14z"/>
<path d="M1530 4447 c0 -26 4 -47 8 -47 9 0 8 78 -2 87 -3 4 -6 -15 -6 -40z"/>
<path d="M1965 4425 c-295 -69 -518 -195 -741 -419 -235 -236 -374 -527 -425
-885 -26 -183 5 -452 75 -657 l23 -69 24 79 c12 43 29 80 37 84 8 3 38 -2 66
-12 29 -9 55 -16 58 -16 3 0 -1 19 -9 41 -55 160 -72 428 -39 604 76 405 325
743 681 923 44 23 100 48 125 57 105 37 158 53 200 59 36 6 53 16 83 49 59 66
59 89 -6 163 -25 29 -26 29 -152 -1z"/>
<path d="M3347 4443 c-13 -12 -7 -26 6 -14 10 8 17 7 25 -1 18 -18 16 -23 -34
-88 -41 -54 -49 -80 -24 -80 5 0 31 31 59 69 l50 69 -34 26 c-37 28 -39 29
-48 19z"/>
<path d="M1256 4431 c-3 -5 1 -11 9 -15 8 -3 15 -1 15 4 0 13 -18 22 -24 11z"/>
<path d="M1217 4402 c-39 -43 -6 -87 58 -78 46 7 72 -10 61 -40 -5 -14 -4 -15
9 -4 21 18 19 56 -6 73 -13 10 -34 13 -61 9 -45 -6 -63 10 -47 40 12 23 7 23
-14 0z"/>
<path d="M3448 4378 c8 -10 10 -23 6 -30 -6 -9 -3 -9 9 1 10 8 16 14 15 15 -2
1 -12 8 -23 16 -18 14 -19 14 -7 -2z"/>
<path d="M1107 4312 l-38 -39 59 -63 58 -64 40 37 c33 30 37 38 25 49 -11 11
-13 11 -6 0 8 -15 -21 -52 -40 -52 -14 0 -51 50 -47 63 1 5 -1 6 -6 3 -5 -3
-19 6 -32 19 -23 24 -23 25 -5 45 10 11 24 19 31 16 8 -3 11 1 7 10 -3 7 -6
14 -7 14 -1 0 -19 -17 -39 -38z"/>
<path d="M3520 4285 c-14 -7 -24 -17 -23 -22 4 -13 -8 -43 -16 -43 -5 0 -14 6
-20 14 -10 11 -8 16 9 21 12 4 20 9 18 11 -2 2 -30 -7 -61 -20 -31 -12 -54
-26 -51 -29 4 -3 19 0 34 8 25 13 29 12 49 -9 25 -27 26 -30 5 -51 -15 -15
-15 -17 2 -30 17 -12 21 -7 51 68 18 45 32 85 31 88 -2 4 -14 2 -28 -6z"/>
<path d="M1170 4270 c0 -5 5 -10 11 -10 5 0 7 5 4 10 -3 6 -8 10 -11 10 -2 0
-4 -4 -4 -10z"/>
<path d="M1277 4254 c6 -15 23 -19 23 -5 0 5 -7 11 -14 14 -10 4 -13 1 -9 -9z"/>
<path d="M979 4183 c-9 -11 -10 -14 -2 -9 20 11 53 -12 53 -39 0 -38 -21 -41
-51 -7 -24 27 -29 29 -41 15 -11 -13 -3 -24 52 -73 50 -45 68 -56 78 -47 11 8
7 15 -17 34 -17 14 -31 29 -31 34 0 5 28 8 61 6 42 -1 63 2 66 11 3 8 -5 12
-24 12 -47 0 -73 11 -73 30 0 49 -42 69 -71 33z"/>
<path d="M3632 4088 c-58 -18 -90 -33 -86 -39 4 -7 9 -8 13 -1 14 21 48 22 66
2 17 -19 18 -23 3 -48 -12 -20 -13 -31 -5 -43 9 -14 19 -3 59 68 27 47 48 86
46 88 -2 1 -45 -11 -96 -27z m36 -23 c-13 -29 -21 -31 -38 -10 -10 12 -8 16
11 24 36 15 40 13 27 -14z"/>
<path d="M825 4010 c-3 -5 3 -10 15 -10 12 0 18 5 15 10 -3 6 -10 10 -15 10
-5 0 -12 -4 -15 -10z"/>
<path d="M3742 3960 c-34 -22 -67 -40 -72 -40 -6 0 -10 -4 -10 -10 0 -15 6
-13 65 27 31 20 57 34 59 32 2 -2 -9 -42 -25 -89 -15 -46 -27 -86 -25 -88 2
-2 38 19 80 47 42 27 72 52 67 55 -5 4 -11 3 -13 -1 -5 -13 -88 -64 -88 -55 0
5 9 35 20 67 21 60 25 95 13 95 -5 0 -36 -18 -71 -40z"/>
<path d="M801 3937 c-1 -38 4 -53 24 -72 30 -31 82 -33 119 -4 35 27 33 42 -2
22 -50 -29 -117 5 -132 67 -8 34 -8 34 -9 -13z"/>
<path d="M2140 3965 c-199 -34 -393 -137 -541 -285 -389 -393 -398 -1022 -20
-1423 134 -141 328 -256 496 -292 l30 -7 -22 -16 c-33 -26 -38 -63 -13 -95 12
-15 31 -27 43 -27 20 0 19 -2 -8 -18 -59 -36 -60 -39 -63 -243 -5 -282 -5
-282 236 -287 201 -5 244 1 285 38 l32 28 3 185 c4 207 -4 243 -57 275 l-31
19 25 11 c33 15 43 58 21 95 -9 16 -15 31 -14 32 2 1 32 9 68 19 83 22 210 82
291 136 81 55 227 201 275 275 89 141 134 255 159 410 53 324 -52 652 -283
884 -236 237 -576 344 -912 286z m430 -46 c415 -104 723 -478 747 -909 24
-437 -256 -849 -673 -990 -120 -41 -224 -54 -378 -47 -110 4 -147 10 -231 37
-273 87 -488 274 -610 532 -63 134 -102 335 -90 473 21 260 112 462 285 636
98 99 178 156 294 209 94 43 182 69 275 80 101 13 284 3 381 -21z m-36 -2160
l26 -20 0 -193 c0 -256 21 -236 -240 -236 -187 0 -201 1 -220 20 -19 19 -20
33 -20 214 l0 195 26 20 c25 20 40 21 214 21 174 0 189 -1 214 -21z"/>
<path d="M2122 3810 c-294 -77 -518 -286 -622 -581 -16 -46 -29 -100 -29 -119
1 -29 3 -24 14 25 19 87 58 184 106 267 59 101 210 249 312 307 84 47 226 101
269 101 15 0 30 5 33 10 8 13 4 12 -83 -10z"/>
<path d="M2238 3823 c12 -2 30 -2 40 0 9 3 -1 5 -23 4 -22 0 -30 -2 -17 -4z"/>
<path d="M2460 3819 c122 -17 267 -72 370 -142 67 -45 176 -154 226 -223 58
-81 111 -198 136 -304 26 -109 28 -274 3 -378 -9 -40 -15 -76 -12 -78 6 -6 24
74 38 170 35 244 -84 558 -278 736 -140 128 -333 217 -488 225 l-70 4 75 -10z"/>
<path d="M2557 3513 c-9 -8 -9 -433 -1 -433 3 0 14 10 24 23 10 12 70 83 134
157 l116 135 0 56 c0 43 -4 58 -16 63 -21 8 -249 8 -257 -1z"/>
<path d="M2863 3435 c18 -16 25 -30 20 -38 -4 -6 -75 -91 -158 -187 -82 -97
-179 -210 -215 -253 -35 -42 -67 -77 -70 -77 -3 0 -47 13 -99 29 -51 16 -99
27 -106 24 -8 -2 -56 -70 -107 -149 -51 -79 -96 -143 -100 -141 -4 1 -48 40
-98 86 -84 77 -94 83 -113 72 -37 -24 -247 -202 -247 -210 0 -5 7 -14 15 -21
18 -15 16 -16 150 94 l96 79 27 -24 c15 -13 57 -53 95 -89 37 -36 71 -66 75
-67 15 -5 31 15 122 152 51 77 96 144 100 148 4 4 50 -4 102 -18 53 -14 100
-25 105 -25 5 0 114 124 243 275 129 151 239 275 244 275 5 0 18 -8 29 -17 20
-18 20 -17 14 16 -4 18 -7 46 -7 62 l0 29 -72 0 -73 -1 28 -24z"/>
<path d="M2110 3035 c0 -107 2 -195 4 -195 3 0 26 29 51 65 52 73 63 76 149
50 81 -25 77 -32 74 128 l-3 142 -137 3 -138 3 0 -196z"/>
<path d="M2736 3090 c-50 -58 -112 -130 -138 -162 l-48 -56 2 -264 3 -263 125
-3 c69 -1 131 2 138 6 9 7 12 99 10 427 l-3 420 -89 -105z"/>
<path d="M1463 3030 c0 -25 2 -35 4 -22 2 12 2 32 0 45 -2 12 -4 2 -4 -23z"/>
<path d="M1697 3013 c-8 -7 -10 -253 -2 -253 3 0 30 20 61 45 30 25 64 45 75
45 12 0 46 -23 77 -50 l57 -51 3 122 c1 68 0 129 -2 136 -4 10 -37 13 -134 13
-71 0 -132 -3 -135 -7z"/>
<path d="M1463 2870 c0 -25 2 -35 4 -22 2 12 2 32 0 45 -2 12 -4 2 -4 -23z"/>
<path d="M2207 2747 c-106 -157 -98 -133 -95 -275 l3 -127 124 -3 c82 -2 128
1 137 9 11 9 14 56 14 230 0 120 -3 220 -7 222 -5 3 -32 12 -61 20 l-52 16
-63 -92z"/>
<path d="M1475 2777 c6 -59 61 -207 106 -284 52 -89 218 -251 314 -306 80 -46
198 -91 218 -84 6 2 -10 9 -37 16 -90 22 -235 104 -320 180 l-39 36 124 5 124
5 3 110 3 110 -70 69 c-79 78 -62 78 -158 -3 l-53 -43 0 -111 0 -111 -29 34
c-75 88 -147 237 -177 365 -13 57 -13 58 -9 12z"/>
<path d="M3140 2598 c-92 -214 -301 -404 -530 -479 -35 -12 -42 -16 -20 -13
147 26 376 190 479 346 47 69 106 186 99 194 -3 2 -15 -19 -28 -48z"/>
<path d="M2149 2089 c43 -17 189 -27 274 -18 46 5 94 13 108 18 17 7 8 8 -31
3 -71 -9 -249 -9 -320 0 -39 5 -48 4 -31 -3z"/>
<path d="M2157 1710 c-34 -27 -40 -50 -27 -99 8 -29 18 -43 40 -53 35 -15 38
-24 10 -33 -31 -10 -60 -54 -60 -92 0 -41 45 -93 81 -93 21 0 22 1 18 148 l-4
147 53 3 c28 2 52 5 52 8 0 3 -7 19 -17 34 -30 52 -100 66 -146 30z"/>
<path d="M2390 1723 c-25 -9 -60 -46 -60 -63 0 -11 11 -17 37 -18 20 -2 40 -5
45 -8 4 -3 8 -50 8 -105 l0 -99 -95 0 -95 0 0 -40 c0 -29 4 -40 15 -40 17 0
50 30 57 51 3 10 16 2 40 -24 29 -30 43 -37 72 -37 97 0 131 134 44 172 -29
13 -37 28 -15 28 19 0 65 51 67 75 5 42 -1 57 -29 86 -28 28 -57 35 -91 22z"/>
<path d="M2265 1550 c-29 -8 -28 -8 10 -8 22 1 57 -3 78 -7 24 -5 37 -4 37 3
0 6 -8 10 -17 10 -10 -1 -31 1 -48 4 -16 3 -43 2 -60 -2z"/>
<path d="M2305 1520 c-4 -6 -3 -16 3 -22 6 -6 12 -6 17 2 4 6 3 16 -3 22 -6 6
-12 6 -17 -2z"/>
<path d="M2250 1506 c0 -7 9 -24 19 -37 16 -19 22 -21 32 -12 10 10 16 10 27
1 11 -10 18 -8 33 11 21 25 25 51 9 51 -5 0 -10 -5 -10 -10 0 -6 -11 -16 -25
-22 -22 -10 -30 -8 -55 11 -22 16 -30 18 -30 7z"/>
<path d="M721 3841 c-14 -25 -14 -31 0 -31 7 0 43 -18 80 -39 56 -32 69 -36
74 -24 7 19 13 14 -60 53 -33 18 -65 40 -72 47 -10 12 -13 12 -22 -6z"/>
<path d="M3883 3763 c22 -6 22 -16 -4 -39 -17 -16 -22 -16 -30 -4 -5 8 -7 21
-4 28 3 8 -9 12 -40 12 -25 0 -45 -4 -45 -9 0 -6 15 -7 33 -4 29 4 35 1 46
-23 11 -26 10 -30 -9 -46 -14 -12 -19 -24 -15 -36 5 -17 15 -9 70 48 36 36 65
70 65 73 0 4 -19 6 -42 6 -24 -1 -35 -3 -25 -6z"/>
<path d="M664 3728 c-5 -15 5 -32 42 -69 l48 -49 -71 0 c-56 0 -72 -3 -77 -16
-4 -9 -5 -17 -4 -18 46 -23 153 -65 156 -61 3 3 -12 12 -34 21 -96 40 -95 39
-10 42 l79 3 -53 54 c-30 30 -51 57 -48 60 3 4 33 -7 66 -23 51 -24 62 -26 67
-14 3 8 4 16 3 17 -2 1 -38 18 -80 38 -75 34 -77 35 -84 15z"/>
<path d="M3998 3648 c-3 -8 -40 -27 -82 -42 l-75 -28 15 -36 c9 -21 18 -43 21
-49 3 -7 11 -13 19 -13 10 0 8 6 -7 21 -32 32 -20 51 53 79 80 30 81 31 70 60
-7 18 -10 20 -14 8z"/>
<path d="M4040 3511 c0 -17 -92 -81 -116 -81 -22 0 -32 -18 -19 -32 14 -14 91
18 118 49 16 18 33 31 37 28 5 -3 6 4 3 15 -6 22 -23 38 -23 21z"/>
<path d="M589 3485 c-14 -7 -31 -26 -38 -42 l-13 -28 26 24 c21 19 32 23 63
18 43 -7 86 -36 91 -61 2 -10 -5 -27 -15 -38 -25 -28 -103 -21 -138 12 -14 13
-25 18 -25 11 0 -45 68 -87 122 -76 33 8 68 56 68 95 0 35 -26 69 -66 86 -40
17 -42 17 -75 -1z"/>
<path d="M4040 3406 c0 -2 11 -6 25 -8 14 -3 25 -1 25 3 0 5 -11 9 -25 9 -14
0 -25 -2 -25 -4z"/>
<path d="M4092 3330 c7 -10 14 -18 15 -16 6 6 -9 36 -18 36 -5 0 -4 -9 3 -20z"/>
<path d="M4015 3275 c-33 -7 -63 -11 -67 -9 -5 3 -8 -7 -8 -21 0 -22 4 -26 18
-20 34 13 147 33 155 28 5 -3 7 3 5 13 -4 24 -27 26 -103 9z"/>
<path d="M511 3268 c-1 -12 6 -18 23 -18 34 0 86 -11 86 -19 0 -3 -29 -22 -65
-41 -77 -41 -85 -64 -22 -67 29 -1 35 1 18 5 -28 9 -23 14 64 62 33 18 62 35
65 37 11 10 -27 21 -91 27 -37 4 -70 12 -73 19 -2 7 -5 4 -5 -5z"/>
<path d="M4120 3226 c0 -8 -6 -17 -12 -19 -8 -3 -6 -6 5 -6 11 -1 17 6 17 19
0 11 -2 20 -5 20 -3 0 -5 -6 -5 -14z"/>
<path d="M4121 3151 c-8 -5 -47 -12 -87 -16 -65 -6 -74 -9 -74 -27 0 -14 5
-18 18 -14 9 3 50 8 90 12 67 6 72 8 72 30 0 27 0 27 -19 15z"/>
<path d="M593 3113 c9 -2 23 -2 30 0 6 3 -1 5 -18 5 -16 0 -22 -2 -12 -5z"/>
<path d="M650 3110 c-13 -8 -12 -10 3 -10 9 0 17 5 17 10 0 12 -1 12 -20 0z"/>
<path d="M506 3039 c-34 -27 -37 -58 -4 -35 32 23 100 20 132 -5 35 -28 33 -5
-3 32 -36 36 -86 39 -125 8z"/>
<path d="M4015 3039 c-34 -20 -45 -41 -44 -88 1 -25 3 -37 6 -26 2 11 6 29 8
41 10 46 101 59 140 19 32 -31 34 -6 3 30 -26 29 -82 41 -113 24z"/>
<path d="M637 2935 c-15 -21 -26 -25 -65 -25 -27 0 -57 7 -70 16 -30 21 -28 0
3 -31 47 -48 136 -26 151 38 8 33 4 34 -19 2z"/>
<path d="M4140 2931 c0 -5 -8 -12 -17 -14 -14 -4 -12 -5 5 -6 13 -1 22 5 22
14 0 8 -2 15 -5 15 -3 0 -5 -4 -5 -9z"/>
<path d="M3964 2843 c-9 -36 15 -77 47 -81 20 -2 32 5 53 32 31 41 61 47 72
14 4 -15 1 -25 -12 -35 -16 -12 -16 -13 -1 -13 25 0 32 45 13 75 -24 37 -59
33 -92 -10 -33 -44 -67 -45 -72 -2 -3 21 2 29 20 36 l23 10 -22 0 c-16 1 -24
-6 -29 -26z"/>
<path d="M480 2815 c0 -8 2 -15 4 -15 2 0 6 7 10 15 3 8 1 15 -4 15 -6 0 -10
-7 -10 -15z"/>
<path d="M650 2803 c0 -16 -8 -37 -17 -45 -43 -38 -124 -29 -143 14 -9 20 -10
19 -5 -7 8 -42 39 -65 89 -65 54 0 86 31 88 83 1 21 -2 40 -5 44 -4 3 -7 -7
-7 -24z"/>
<path d="M3461 2582 c-30 -64 -53 -126 -53 -137 0 -39 86 -245 102 -245 8 1
66 22 128 48 l113 47 54 119 c30 66 53 121 52 123 -2 1 -56 -18 -121 -43 -68
-27 -121 -43 -126 -38 -5 5 -28 62 -52 126 l-44 117 -53 -117z"/>
<path d="M654 2665 c21 -16 32 -13 21 4 -3 6 -14 11 -23 11 -15 -1 -15 -2 2
-15z"/>
<path d="M3957 2630 c-15 -17 -27 -41 -26 -53 l0 -22 9 23 c27 65 146 48 163
-23 2 -11 3 -2 2 19 -4 49 -31 76 -82 83 -35 5 -42 2 -66 -27z"/>
<path d="M501 2623 c0 -16 3 -22 6 -13 3 8 10 21 16 28 7 8 5 12 -7 12 -11 0
-16 -8 -15 -27z"/>
<path d="M580 2630 c0 -5 5 -10 10 -10 6 0 10 5 10 10 0 6 -4 10 -10 10 -5 0
-10 -4 -10 -10z"/>
<path d="M671 2618 c-1 -15 -44 -32 -67 -27 -5 1 -16 0 -24 -4 -35 -13 -59
-14 -64 -3 -2 6 -5 2 -5 -10 -1 -11 1 -23 4 -26 5 -5 164 18 171 25 2 1 -1 16
-5 33 -5 16 -10 21 -10 12z"/>
<path d="M4075 2510 c-19 -8 -19 -9 3 -9 12 -1 22 4 22 9 0 6 -1 10 -2 9 -2 0
-12 -4 -23 -9z"/>
<path d="M641 2495 c0 -11 4 -27 9 -35 9 -13 10 -13 9 0 0 8 -4 24 -9 35 l-9
20 0 -20z"/>
<path d="M3906 2473 c-8 -20 -7 -33 2 -31 15 4 72 -14 72 -22 0 -5 7 -7 15 -4
8 3 28 -1 45 -9 16 -9 30 -12 30 -7 0 5 3 15 6 24 4 11 0 16 -14 16 -12 0 -50
11 -86 24 -54 19 -66 21 -70 9z"/>
<path d="M620 2397 c-38 -19 -54 -60 -40 -102 22 -66 80 -91 140 -60 35 18 50
43 49 82 0 25 -1 26 -9 7 -22 -55 -115 -91 -151 -58 -42 38 -3 98 74 111 29 4
42 1 59 -13 21 -19 21 -19 9 3 -22 42 -80 56 -131 30z"/>
<path d="M3880 2392 c0 -12 19 -26 26 -19 2 2 -2 10 -11 17 -9 8 -15 8 -15 2z"/>
<path d="M3966 2391 c-3 -5 1 -11 9 -14 9 -4 12 -1 8 9 -6 16 -10 17 -17 5z"/>
<path d="M4030 2340 c0 -5 5 -10 10 -10 6 0 10 5 10 10 0 6 -4 10 -10 10 -5 0
-10 -4 -10 -10z"/>
<path d="M3856 2332 c-2 -4 25 -18 60 -32 35 -13 64 -27 64 -30 0 -4 -38 -17
-85 -29 -87 -23 -102 -34 -62 -47 12 -4 48 -19 80 -35 32 -15 57 -23 55 -17
-2 6 -22 18 -45 27 -23 9 -44 19 -48 23 -4 4 25 16 64 28 64 20 90 34 79 45
-13 13 -158 73 -162 67z"/>
<path d="M733 2179 c-40 -20 -75 -34 -78 -31 -8 8 -6 -12 4 -26 6 -11 25 -5
85 24 42 20 76 40 76 43 -1 25 -22 22 -87 -10z"/>
<path d="M856 2104 c15 -27 16 -36 6 -58 -13 -28 -67 -66 -94 -66 -26 0 -61
38 -55 61 3 10 2 19 -2 19 -17 0 -19 -14 -6 -41 35 -66 106 -79 157 -29 26 27
30 36 25 67 -4 20 -16 46 -27 57 l-21 21 17 -31z"/>
<path d="M3755 2112 c-7 -19 -5 -21 76 -66 68 -37 71 -37 94 4 7 12 6 13 -6 3
-12 -9 -29 -3 -86 32 -59 35 -73 40 -78 27z"/>
<path d="M3926 2085 c4 -8 8 -15 10 -15 2 0 4 7 4 15 0 8 -4 15 -10 15 -5 0
-7 -7 -4 -15z"/>
<path d="M3676 1986 c-14 -22 -14 -24 4 -19 12 3 29 -5 45 -21 14 -14 30 -26
34 -26 5 0 20 -9 34 -20 22 -17 26 -18 37 -5 7 9 11 17 9 18 -2 1 -36 24 -76
49 l-71 47 -16 -23z"/>
<path d="M3867 1983 c-9 -2 -15 -9 -12 -14 9 -14 22 -11 29 6 3 8 4 14 3 14
-1 -1 -10 -3 -20 -6z"/>
<path d="M874 1944 c-31 -15 -54 -50 -54 -80 0 -32 33 -76 66 -90 32 -14 39
-13 72 3 72 35 77 122 8 164 -37 23 -51 23 -92 3z m110 -30 c25 -24 19 -43
-23 -85 -48 -48 -95 -54 -113 -14 -15 33 1 69 44 95 40 24 71 25 92 4z"/>
<path d="M3641 1937 c-6 -8 -8 -17 -4 -20 12 -12 19 -7 19 13 0 24 0 24 -15 7z"/>
<path d="M3722 1901 c-11 -7 -11 -9 0 -14 9 -3 15 1 15 9 0 8 -1 14 -1 14 -1
0 -7 -4 -14 -9z"/>
<path d="M3593 1869 c-8 -8 -2 -19 20 -39 39 -35 33 -44 -23 -31 -46 10 -66 7
-73 -13 -3 -8 8 -13 36 -15 50 -3 57 -7 57 -35 0 -25 17 -46 39 -46 8 0 32 16
53 37 l37 36 -46 41 c-80 70 -89 76 -100 65z m88 -97 c28 -23 20 -55 -12 -50
-27 4 -44 30 -36 52 8 21 19 20 48 -2z"/>
<path d="M3770 1836 c7 -7 13 -7 20 0 6 6 3 10 -10 10 -13 0 -16 -4 -10 -10z"/>
<path d="M1025 1777 c-12 -18 -12 -30 -4 -62 9 -33 8 -41 -6 -52 -24 -17 -59
1 -52 28 5 19 -7 27 -17 10 -11 -17 35 -61 64 -61 41 0 52 20 44 79 -6 43 -4
52 11 57 24 10 50 -9 49 -35 -1 -22 10 -28 21 -11 9 15 -50 70 -74 70 -11 0
-27 -10 -36 -23z"/>
<path d="M2002 1234 c-12 -8 -22 -22 -22 -31 0 -15 2 -14 18 0 21 19 57 22 67
7 13 -21 -7 -48 -55 -74 -28 -15 -50 -31 -50 -36 0 -4 24 -12 53 -16 71 -11
69 -12 78 12 7 21 5 22 -32 17 -50 -7 -50 1 0 27 59 30 66 75 15 99 -33 15
-45 14 -72 -5z"/>
<path d="M2499 1233 c-43 -4 -47 -6 -51 -34 -5 -30 6 -40 16 -14 3 9 19 15 41
15 l35 0 -20 -37 c-24 -46 -28 -105 -5 -97 8 4 15 18 15 33 0 15 11 49 25 76
24 48 25 67 2 63 -7 -1 -33 -3 -58 -5z"/>
<path d="M2150 1210 c-30 -30 -28 -113 2 -134 56 -40 110 -6 112 70 1 37 -4
50 -23 65 -30 25 -66 24 -91 -1z m69 -14 c18 -22 10 -97 -12 -110 -40 -24 -62
67 -26 110 15 18 23 18 38 0z"/>
<path d="M2328 1213 c-24 -6 -23 -19 2 -26 17 -4 20 -14 20 -56 0 -37 -4 -53
-17 -60 -14 -8 -7 -10 32 -10 39 0 46 2 33 10 -15 8 -18 24 -18 79 0 74 -2 76
-52 63z"/>
<path d="M2425 808 c-2 -7 -6 -75 -7 -151 l-3 -137 38 0 c35 0 37 2 27 21 -7
12 -10 64 -9 127 3 150 2 152 -21 152 -11 0 -23 -6 -25 -12z"/>
<path d="M2545 670 l0 -150 30 0 30 0 -5 147 -5 148 -25 3 -25 3 0 -151z"/>
<path d="M2677 808 c-24 -13 -21 -35 5 -41 27 -7 38 -1 38 23 0 22 -21 31 -43
18z"/>
<path d="M318 778 c12 -16 92 -227 92 -245 0 -23 26 -14 39 13 10 22 6 39 -24
121 -20 52 -34 102 -31 109 4 11 -6 14 -41 14 -35 0 -43 -3 -35 -12z"/>
<path d="M474 768 c9 -12 16 -34 16 -48 0 -14 4 -30 9 -36 6 -5 21 -43 34 -84
14 -44 30 -75 38 -75 7 0 19 19 25 43 7 23 9 40 4 37 -12 -8 -53 103 -54 147
-1 38 -1 38 -44 38 -43 0 -43 0 -28 -22z"/>
<path d="M626 782 c7 -4 13 -14 15 -24 3 -13 7 -12 22 8 l18 24 -33 0 c-18 0
-28 -4 -22 -8z"/>
<path d="M721 773 c8 -10 20 -22 27 -26 6 -4 12 -13 12 -19 0 -6 19 -56 42
-110 l42 -98 13 31 c18 43 17 47 -18 125 -54 121 -48 114 -92 114 -36 0 -38
-1 -26 -17z"/>
<path d="M938 655 l-3 -135 44 0 c37 0 42 2 31 15 -8 10 -11 51 -8 135 l3 120
-32 0 -32 0 -3 -135z"/>
<path d="M1092 770 c-12 -12 -22 -32 -22 -45 0 -23 11 -35 95 -109 38 -33 39
-36 28 -65 -9 -26 -9 -31 3 -31 24 0 54 38 54 68 0 29 -25 58 -87 101 -37 25
-52 64 -33 86 20 24 -12 19 -38 -5z"/>
<path d="M1310 674 c5 -107 7 -117 29 -135 13 -10 29 -19 36 -19 7 0 22 -3 32
-7 12 -4 9 2 -9 18 -26 23 -27 29 -29 130 -2 58 1 111 5 117 5 8 -4 12 -31 12
l-38 0 5 -116z"/>
<path d="M1484 775 c8 -8 17 -15 19 -15 3 0 7 7 11 15 4 11 -2 15 -20 15 -23
0 -24 -2 -10 -15z"/>
<path d="M1682 774 c-24 -16 -29 -53 -12 -84 6 -11 31 -33 56 -51 54 -37 68
-65 48 -96 -13 -20 -13 -23 1 -23 23 0 65 46 65 70 0 22 -29 54 -94 104 -33
25 -37 33 -34 62 5 38 1 40 -30 18z"/>
<path d="M3256 769 c-37 -29 -56 -71 -56 -121 1 -52 17 -83 56 -109 38 -25 63
-26 42 -1 -20 23 -38 78 -38 117 0 39 18 94 38 118 13 15 13 17 0 17 -8 0 -27
-9 -42 -21z"/>
<path d="M1217 773 c-4 -3 -3 -11 2 -17 5 -6 11 -20 14 -31 3 -12 5 -4 6 18 1
35 -7 46 -22 30z"/>
<path d="M1797 768 c6 -7 13 -20 16 -28 3 -9 6 -3 6 13 1 19 -4 27 -15 27 -12
0 -14 -4 -7 -12z"/>
<path d="M2098 743 c-2 -16 -1 -71 2 -123 l5 -95 35 -3 c28 -2 32 0 18 8 -15
9 -18 26 -18 95 0 71 3 84 18 88 16 4 16 5 0 6 -12 1 -18 9 -18 26 0 37 -38
35 -42 -2z"/>
<path d="M2797 763 c-13 -12 -8 -218 5 -231 7 -7 26 -12 42 -12 26 1 28 2 14
11 -15 8 -18 25 -18 94 0 71 3 84 18 88 16 4 16 5 0 6 -12 1 -18 9 -18 26 0
18 -5 25 -18 25 -10 0 -22 -3 -25 -7z"/>
<path d="M3406 755 c4 -8 10 -15 15 -15 4 0 6 7 3 15 -4 8 -10 15 -15 15 -4 0
-6 -7 -3 -15z"/>
<path d="M3927 763 c-11 -10 -8 -203 3 -224 7 -13 21 -19 43 -19 27 1 29 2 14
11 -15 9 -18 23 -17 97 2 141 2 142 -18 142 -10 0 -22 -3 -25 -7z"/>
<path d="M1968 703 c5 -10 8 -49 6 -87 -4 -75 5 -96 40 -96 20 0 21 3 16 83
-5 88 -18 117 -52 117 -15 0 -17 -4 -10 -17z"/>
<path d="M2253 705 c-33 -23 -48 -79 -34 -126 7 -21 20 -43 31 -49 33 -17 85
-12 106 11 19 22 19 22 -4 10 -36 -19 -69 -6 -81 32 -12 36 -6 104 11 125 14
17 -3 15 -29 -3z"/>
<path d="M2318 708 c7 -7 12 -25 12 -40 0 -23 4 -28 26 -28 22 0 24 3 19 23
-7 24 -41 57 -58 57 -7 0 -7 -4 1 -12z"/>
<path d="M2660 706 c7 -10 10 -44 8 -100 l-3 -86 30 0 30 0 -3 100 -3 100 -36
0 c-30 0 -34 -2 -23 -14z"/>
<path d="M2939 691 c-52 -52 -36 -147 28 -168 16 -5 39 -7 52 -3 32 8 39 29 8
23 -30 -6 -57 20 -58 55 -2 54 3 97 13 110 22 25 -14 12 -43 -17z"/>
<path d="M3020 701 c5 -11 10 -29 10 -40 0 -14 6 -21 20 -21 13 0 20 7 20 20
0 21 -33 60 -50 60 -7 0 -7 -6 0 -19z"/>
<path d="M3503 696 c-25 -21 -28 -31 -28 -81 0 -48 4 -60 24 -76 38 -31 121
-22 121 14 0 5 -7 4 -15 -3 -22 -18 -64 -4 -75 25 -10 26 -7 96 5 128 10 23 1
22 -32 -7z"/>
<path d="M3580 701 c5 -11 10 -29 10 -40 0 -14 6 -21 20 -21 13 0 20 7 20 20
0 21 -33 60 -50 60 -7 0 -7 -6 0 -19z"/>
<path d="M3685 708 c-2 -7 -6 -52 -7 -101 l-3 -87 39 0 c33 0 37 2 26 15 -8 9
-11 41 -10 87 4 96 3 98 -20 98 -11 0 -23 -6 -25 -12z"/>
<path d="M3788 704 c19 -13 22 -24 22 -88 0 -43 -5 -77 -12 -84 -9 -9 -3 -12
27 -12 l40 0 -5 83 c-6 95 -18 117 -63 117 -31 0 -31 0 -9 -16z"/>
<path d="M4077 700 c-45 -35 -48 -119 -7 -160 33 -33 120 -23 120 13 0 5 -7 4
-15 -3 -22 -18 -61 -4 -73 27 -12 29 -11 81 2 121 9 27 6 27 -27 2z"/>
<path d="M4154 704 c3 -9 6 -27 6 -40 0 -17 6 -24 20 -24 24 0 26 26 4 58 -17
25 -39 30 -30 6z"/>
<path d="M4259 635 c2 -57 -1 -90 -9 -100 -11 -13 -6 -15 35 -15 38 0 45 3 37
13 -6 7 -12 51 -14 97 -3 82 -4 85 -28 88 l-25 3 4 -86z"/>
<path d="M4347 698 c-7 -27 -1 -38 23 -38 22 0 34 28 19 46 -17 21 -36 17 -42
-8z"/>
<path d="M1897 703 c-4 -3 -7 -17 -7 -30 0 -25 21 -31 39 -10 8 11 7 18 -7 31
-10 9 -22 13 -25 9z"/>
<path d="M1893 596 c-24 -21 -26 -26 -15 -50 9 -19 19 -26 41 -26 35 0 49 16
21 23 -22 6 -26 28 -10 58 15 27 -3 24 -37 -5z"/>
<path d="M1070 573 c0 -32 4 -43 15 -43 18 0 18 -4 0 45 l-14 40 -1 -42z"/>
<path d="M1660 562 c0 -12 9 -26 21 -32 20 -11 20 -11 3 17 -10 15 -19 30 -21
32 -2 2 -3 -5 -3 -17z"/>
<path d="M3406 555 c-3 -8 -1 -15 4 -15 6 0 10 7 10 15 0 8 -2 15 -4 15 -2 0
-6 -7 -10 -15z"/>
<path d="M720 535 c-11 -13 -8 -15 16 -15 16 0 25 4 19 8 -5 4 -13 11 -16 15
-3 4 -12 1 -19 -8z"/>
</g>
</svg>
