<?xml version="1.0" standalone="no"?>
<!DOCTYPE svg PUBLIC "-//W3C//DTD SVG 20010904//EN"
 "http://www.w3.org/TR/2001/REC-SVG-20010904/DTD/svg10.dtd">
<svg version="1.0" xmlns="http://www.w3.org/2000/svg"
 width="500.000000pt" height="500.000000pt" viewBox="0 0 500.000000 500.000000"
 preserveAspectRatio="xMidYMid meet">

<g transform="translate(0.000000,500.000000) scale(0.100000,-0.100000)"
fill="#000000" stroke="none">
<path d="M1175 3573 c2 -16 4 -36 4 -45 1 -27 21 -22 21 5 0 32 -11 67 -20 67
-5 0 -7 -12 -5 -27z"/>
<path d="M1281 3574 c-6 -15 -9 -29 -6 -32 3 -3 5 0 5 6 0 7 5 12 11 12 5 0 8
-3 5 -8 -5 -9 22 -48 29 -40 6 5 -14 68 -25 81 -3 4 -12 -4 -19 -19z"/>
<path d="M1365 3569 c-3 -19 -9 -43 -11 -54 -4 -16 -3 -17 5 -5 6 8 11 26 11
40 1 22 4 20 28 -19 l26 -45 8 39 c5 22 7 46 4 55 -2 8 -4 3 -5 -12 0 -16 -5
-28 -11 -28 -5 0 -10 3 -10 8 0 4 -9 18 -19 31 l-19 24 -7 -34z"/>
<path d="M1114 3568 c3 -13 6 -33 6 -45 0 -13 5 -23 10 -23 6 0 10 10 10 23 0
34 -11 67 -22 67 -6 0 -8 -10 -4 -22z"/>
<path d="M1024 3559 c-17 -19 -17 -23 -3 -47 17 -30 45 -40 63 -21 8 9 8 10
-1 5 -31 -17 -67 41 -42 70 18 22 4 16 -17 -7z"/>
<path d="M1471 3535 c-13 -53 -13 -55 -2 -55 5 0 13 17 18 38 5 22 15 37 23
37 22 0 24 -44 4 -66 -19 -21 -6 -26 18 -6 37 29 26 67 -23 86 -26 9 -27 8
-38 -34z"/>
<path d="M959 3536 c11 -13 11 -20 2 -29 -9 -9 -13 -7 -17 11 -4 12 -12 22
-19 22 -10 0 -9 -11 4 -45 9 -25 22 -45 29 -45 10 0 10 5 2 20 -11 20 3 30 15
10 3 -5 16 -10 28 -10 20 0 20 0 1 14 -10 8 -19 25 -19 38 0 15 -7 24 -20 26
-17 4 -18 2 -6 -12z"/>
<path d="M1620 3505 c-6 -15 -14 -35 -20 -45 -7 -14 -6 -20 7 -25 10 -3 14 -3
11 1 -4 3 2 24 12 45 12 23 16 40 10 44 -6 3 -15 -6 -20 -20z"/>
<path d="M850 3456 c0 -31 4 -55 9 -52 5 3 7 19 5 36 l-4 30 22 -20 c12 -11
25 -20 30 -20 16 0 7 17 -27 50 l-35 34 0 -58z"/>
<path d="M1670 3483 c0 -21 -7 -37 -22 -47 -16 -11 -18 -16 -7 -16 38 0 66 48
44 77 -13 17 -14 16 -15 -14z"/>
<path d="M1160 3471 c0 -5 10 -22 23 -38 51 -63 50 -57 12 -104 -19 -24 -35
-47 -35 -51 0 -5 29 -8 64 -8 l63 0 41 52 40 52 -41 53 -42 53 -62 0 c-35 0
-63 -4 -63 -9z"/>
<path d="M759 3458 c-15 -11 -15 -15 8 -50 26 -39 37 -45 48 -28 3 6 2 10 -4
10 -14 0 -43 58 -36 70 8 12 4 12 -16 -2z"/>
<path d="M1706 3429 c-21 -16 -34 -29 -28 -29 6 0 13 4 17 10 10 16 37 -1 32
-21 -6 -24 10 -35 17 -12 12 46 17 83 9 82 -4 0 -26 -14 -47 -30z"/>
<path d="M795 3430 c-3 -5 -1 -10 4 -10 6 0 11 5 11 10 0 6 -2 10 -4 10 -3 0
-8 -4 -11 -10z"/>
<path d="M695 3410 c-15 -16 -16 -22 -5 -35 7 -9 21 -13 31 -10 11 4 21 -1 27
-11 7 -12 11 -13 16 -5 11 17 -14 43 -36 38 -22 -6 -36 12 -17 24 7 4 11 10 8
14 -3 3 -14 -4 -24 -15z"/>
<path d="M1100 3423 c-70 -12 -213 -71 -204 -84 3 -5 -4 -9 -16 -9 -11 0 -39
-12 -63 -26 -50 -32 -207 -189 -207 -208 0 -8 -7 -19 -15 -26 -38 -32 -100
-205 -114 -320 -11 -88 -4 -220 11 -220 5 0 6 -9 3 -20 -8 -26 24 -132 37
-124 5 4 8 15 5 25 -3 11 -1 19 4 19 5 0 9 6 9 14 0 12 7 13 32 5 17 -5 33 -7
36 -5 2 2 -4 26 -14 53 -23 66 -23 260 0 322 18 48 21 74 6 51 -7 -10 -10 -11
-10 -2 0 7 6 15 14 18 8 3 24 29 36 57 12 29 29 60 38 70 8 9 12 17 8 17 -4 0
3 11 16 24 13 13 41 43 64 68 46 51 104 93 187 135 31 16 54 33 50 37 -4 4 0
4 9 1 29 -11 126 24 147 53 19 27 19 28 -1 55 -11 15 -25 26 -31 26 -7 -1 -23
-4 -37 -6z"/>
<path d="M1798 3383 c-15 -20 -25 -40 -22 -45 3 -5 15 4 27 19 11 15 24 33 29
40 5 6 5 13 1 16 -4 3 -20 -11 -35 -30z"/>
<path d="M640 3310 c31 -39 33 -40 51 -24 11 9 19 22 19 27 0 6 -6 3 -13 -7
-12 -17 -15 -16 -38 13 -13 17 -30 31 -37 31 -8 0 -1 -16 18 -40z"/>
<path d="M1845 3331 c-22 -11 -36 -20 -32 -20 5 -1 17 4 29 10 26 14 31 8 19
-24 -6 -15 -6 -29 -2 -32 7 -4 41 62 41 80 0 9 -14 5 -55 -14z"/>
<path d="M720 3330 c0 -5 5 -10 11 -10 5 0 7 5 4 10 -3 6 -8 10 -11 10 -2 0
-4 -4 -4 -10z"/>
<path d="M573 3289 c9 -5 17 -16 17 -23 0 -18 50 -30 63 -17 8 8 5 11 -11 11
-12 0 -26 9 -32 20 -6 11 -21 20 -33 20 -20 -1 -20 -2 -4 -11z"/>
<path d="M547 3272 c-4 -5 9 -23 27 -41 19 -18 36 -29 39 -23 4 5 -9 23 -27
41 -19 18 -36 29 -39 23z"/>
<path d="M1943 3247 c-17 -7 -35 -16 -40 -20 -4 -5 5 -3 21 3 29 11 50 5 30
-8 -15 -10 -25 -40 -15 -46 4 -3 18 12 29 33 32 56 31 58 -25 38z"/>
<path d="M1993 3177 c-18 -12 -33 -26 -33 -30 0 -5 12 1 27 12 14 12 28 20 30
18 2 -2 -3 -23 -11 -45 -9 -23 -14 -42 -12 -42 15 0 86 49 78 54 -5 3 -15 -1
-22 -9 -20 -24 -30 -18 -20 11 12 30 13 54 3 53 -5 0 -23 -10 -40 -22z"/>
<path d="M1125 3171 c-87 -25 -154 -63 -218 -121 -293 -267 -197 -756 175
-892 50 -18 56 -23 48 -39 -11 -20 -3 -49 13 -49 5 0 2 -9 -9 -21 -16 -18 -19
-37 -19 -126 0 -139 5 -143 151 -143 138 0 144 6 144 141 0 81 -3 100 -20 122
-14 17 -17 28 -9 33 6 3 9 19 6 34 -5 25 -2 28 36 40 252 74 416 347 364 605
-24 114 -68 197 -146 276 -138 138 -337 192 -516 140z m247 -12 c168 -35 312
-162 378 -334 33 -86 34 -233 2 -328 -74 -214 -259 -348 -482 -350 -179 -1
-332 79 -428 223 -106 159 -117 347 -31 520 103 205 334 316 561 269z m6
-1131 c19 -19 16 -193 -4 -212 -20 -20 -203 -23 -222 -4 -13 13 -18 209 -5
221 12 13 218 8 231 -5z"/>
<path d="M1140 3095 c-47 -18 -27 -18 30 -1 25 8 36 15 25 15 -11 0 -36 -7
-55 -14z"/>
<path d="M1338 3103 c6 -2 18 -2 25 0 6 3 1 5 -13 5 -14 0 -19 -2 -12 -5z"/>
<path d="M1395 3090 c27 -12 43 -12 25 0 -8 5 -22 9 -30 9 -10 0 -8 -3 5 -9z"/>
<path d="M1028 3045 c-20 -13 -39 -29 -43 -35 -3 -5 15 4 42 22 59 39 58 38
47 37 -5 0 -26 -11 -46 -24z"/>
<path d="M1470 3066 c0 -2 20 -16 44 -30 24 -14 68 -52 96 -83 29 -32 48 -49
42 -38 -22 43 -182 176 -182 151z"/>
<path d="M915 2943 c-25 -32 -45 -62 -45 -67 0 -5 14 11 31 35 18 24 41 54 52
67 11 12 18 22 14 22 -4 0 -27 -26 -52 -57z"/>
<path d="M1380 2835 c0 -63 2 -115 4 -115 10 0 146 168 146 179 0 7 5 9 10 6
6 -3 10 -10 10 -15 0 -11 -220 -270 -229 -270 -3 0 -27 7 -53 15 l-48 14 -24
-32 c-13 -18 -36 -51 -51 -74 -15 -24 -30 -43 -33 -43 -2 0 -24 18 -48 40 -24
22 -47 40 -51 40 -17 0 -133 -101 -133 -115 0 -22 12 -18 56 18 80 67 69 66
125 11 l50 -49 22 26 c12 15 39 52 61 84 32 47 42 56 60 50 11 -3 37 -8 56
-11 34 -5 37 -2 154 136 75 89 124 139 132 136 10 -4 14 3 14 24 0 28 -2 30
-39 30 -25 0 -41 5 -45 15 -4 11 -22 15 -76 15 l-70 0 0 -115z"/>
<path d="M1677 2855 c9 -19 18 -33 21 -31 4 5 -26 66 -33 66 -3 0 3 -16 12
-35z"/>
<path d="M845 2823 c-9 -20 -14 -40 -13 -45 2 -5 11 11 20 37 20 54 15 61 -7
8z"/>
<path d="M1150 2700 c0 -55 4 -100 8 -100 4 0 16 14 26 31 18 30 20 31 67 25
l49 -7 0 76 0 75 -75 0 -75 0 0 -100z"/>
<path d="M1451 2696 l-71 -83 0 -137 0 -136 75 0 75 0 0 220 c0 121 -2 220 -4
220 -2 0 -36 -38 -75 -84z"/>
<path d="M1717 2740 c3 -25 7 -47 9 -49 8 -9 2 55 -6 74 -6 13 -7 5 -3 -25z"/>
<path d="M821 2734 c0 -11 3 -14 6 -6 3 7 2 16 -1 19 -3 4 -6 -2 -5 -13z"/>
<path d="M813 2655 c0 -27 2 -38 4 -22 2 15 2 37 0 50 -2 12 -4 0 -4 -28z"/>
<path d="M940 2625 c0 -69 6 -77 35 -45 24 27 43 25 77 -7 l28 -27 0 72 0 72
-70 0 -70 0 0 -65z"/>
<path d="M1721 2600 c-1 -14 -4 -36 -6 -50 l-6 -25 11 25 c6 13 9 36 7 50 l-4
25 -2 -25z"/>
<path d="M822 2570 c0 -14 2 -19 5 -12 2 6 2 18 0 25 -3 6 -5 1 -5 -13z"/>
<path d="M1190 2531 c-37 -55 -40 -65 -40 -125 l0 -66 75 0 75 0 0 119 c0 99
-3 120 -16 125 -37 14 -54 5 -94 -53z"/>
<path d="M830 2529 c0 -29 59 -134 102 -180 24 -25 40 -41 36 -35 -16 21 -6
26 52 26 l60 0 0 58 c0 53 -3 61 -33 90 -18 18 -38 32 -43 32 -6 0 -22 -12
-37 -27 -20 -22 -27 -40 -29 -83 l-3 -55 -29 37 c-15 21 -39 64 -52 95 -13 32
-24 51 -24 42z"/>
<path d="M1666 2434 c-17 -32 -57 -81 -95 -116 -36 -34 -52 -52 -36 -41 47 32
121 115 145 163 12 23 20 43 18 45 -2 2 -16 -21 -32 -51z"/>
<path d="M1015 2276 c17 -14 34 -26 39 -26 11 0 11 0 -34 29 l-35 23 30 -26z"/>
<path d="M1084 2236 c11 -9 27 -16 35 -15 14 0 14 1 1 6 -8 3 -24 10 -35 15
-20 9 -20 9 -1 -6z"/>
<path d="M1440 2235 c-14 -8 -20 -14 -15 -14 6 0 21 6 35 14 14 8 21 14 15 14
-5 0 -21 -6 -35 -14z"/>
<path d="M1193 2203 c9 -2 23 -2 30 0 6 3 -1 5 -18 5 -16 0 -22 -2 -12 -5z"/>
<path d="M1333 2203 c9 -2 23 -2 30 0 6 3 -1 5 -18 5 -16 0 -22 -2 -12 -5z"/>
<path d="M1253 2193 c9 -2 25 -2 35 0 9 3 1 5 -18 5 -19 0 -27 -2 -17 -5z"/>
<path d="M1172 2008 c-18 -18 -14 -55 8 -71 19 -13 19 -13 -1 -31 -24 -20 -22
-64 4 -80 13 -8 25 -7 49 7 28 16 33 16 40 3 11 -19 59 -21 76 -4 22 22 8 78
-20 78 -4 0 -8 -8 -8 -19 0 -14 -10 -20 -37 -25 -73 -12 -73 -12 -73 49 0 52
1 55 25 55 14 0 25 6 25 13 0 21 -22 37 -50 37 -14 0 -31 -5 -38 -12z"/>
<path d="M1288 2009 c-24 -13 -23 -29 2 -29 16 0 20 -7 20 -30 0 -18 5 -30 13
-30 21 0 37 22 37 50 0 44 -33 62 -72 39z"/>
<path d="M1232 1893 c2 -8 6 -14 11 -14 4 1 16 1 27 1 11 0 20 6 20 13 0 8
-12 13 -30 13 -21 0 -30 -4 -28 -13z"/>
<path d="M472 3158 c2 -12 15 -29 30 -38 25 -14 29 -13 45 4 17 17 17 18 -4
11 -17 -4 -30 1 -49 20 -25 25 -25 25 -22 3z"/>
<path d="M430 3112 c0 -13 78 -53 84 -44 3 5 -12 19 -33 30 -42 24 -51 26 -51
14z"/>
<path d="M2073 3071 c1 -5 -9 -18 -22 -30 -15 -13 -21 -25 -15 -30 5 -4 24 9
43 31 30 35 32 38 12 38 -11 0 -20 -4 -18 -9z"/>
<path d="M404 3058 c-3 -5 4 -20 17 -34 l22 -24 -31 0 c-17 0 -34 -5 -37 -11
-9 -13 -6 -15 25 -23 19 -6 21 -5 10 3 -12 8 -6 11 24 11 l39 0 -21 23 c-30
32 -27 40 8 22 23 -12 30 -12 30 -3 0 17 -78 50 -86 36z"/>
<path d="M2090 2996 c-35 -13 -42 -36 -20 -60 5 -5 7 0 4 11 -5 17 1 23 30 33
20 6 36 16 36 21 0 11 -6 11 -50 -5z"/>
<path d="M437 2949 c7 -7 15 -10 18 -7 3 3 -2 9 -12 12 -14 6 -15 5 -6 -5z"/>
<path d="M2128 2925 c-15 -13 -33 -25 -40 -28 -22 -7 -5 -16 22 -10 26 5 66
48 52 56 -4 3 -19 -5 -34 -18z"/>
<path d="M357 2922 c-10 -10 -17 -23 -17 -28 0 -5 5 -1 11 9 12 21 25 21 62 3
32 -18 36 -4 5 18 -29 21 -41 20 -61 -2z"/>
<path d="M340 2871 c0 -6 11 -18 24 -26 19 -13 29 -14 45 -5 28 14 27 17 -10
18 -17 0 -37 6 -45 13 -10 8 -14 8 -14 0z"/>
<path d="M2175 2850 c3 -5 8 -10 11 -10 2 0 4 5 4 10 0 6 -5 10 -11 10 -5 0
-7 -4 -4 -10z"/>
<path d="M2133 2823 c-19 -2 -33 -10 -33 -18 0 -10 9 -11 38 -4 51 12 55 11
48 -6 -3 -8 -1 -15 5 -15 16 0 6 45 -11 46 -8 0 -30 -1 -47 -3z"/>
<path d="M328 2813 c7 -3 16 -2 19 1 4 3 -2 6 -13 5 -11 0 -14 -3 -6 -6z"/>
<path d="M365 2800 c3 -5 -8 -16 -25 -25 -37 -19 -39 -35 -2 -35 16 0 22 3 15
8 -8 5 -1 14 22 26 41 23 45 36 9 36 -14 0 -23 -4 -19 -10z"/>
<path d="M2153 2752 c-25 -2 -43 -8 -43 -15 0 -8 16 -11 50 -9 27 2 50 8 50
12 0 13 -11 15 -57 12z"/>
<path d="M378 2733 c6 -2 18 -2 25 0 6 3 1 5 -13 5 -14 0 -19 -2 -12 -5z"/>
<path d="M322 2698 c-7 -7 -12 -16 -12 -22 0 -6 5 -5 12 2 7 7 21 12 33 12 12
0 26 -5 33 -12 7 -7 12 -8 12 -2 0 17 -23 34 -45 34 -12 0 -26 -5 -33 -12z"/>
<path d="M2130 2690 c-26 -26 -26 -49 0 -25 13 12 29 16 51 13 l33 -5 -23 18
c-29 24 -36 24 -61 -1z"/>
<path d="M2623 2680 c-66 -15 -99 -71 -82 -134 12 -44 47 -68 125 -85 42 -10
58 -18 66 -37 9 -20 8 -28 -8 -45 -25 -28 -94 -22 -130 12 l-24 22 -25 -23
c-24 -22 -24 -24 -8 -43 30 -32 72 -48 132 -49 96 -1 140 35 141 115 0 59 -26
90 -91 107 -24 7 -55 15 -68 19 -14 4 -29 15 -35 24 -28 44 52 74 114 42 30
-15 32 -15 50 7 16 21 17 25 3 40 -8 9 -37 22 -64 27 -55 12 -51 12 -96 1z"/>
<path d="M4465 2683 c-92 -23 -135 -83 -135 -190 0 -128 59 -194 174 -194 62
0 105 18 130 55 23 35 20 51 -11 65 -22 10 -28 10 -32 0 -2 -7 -14 -23 -27
-36 -49 -49 -133 -18 -155 57 -13 42 -5 115 14 141 34 45 101 51 146 13 30
-25 32 -25 57 -9 23 15 24 18 11 38 -28 43 -117 74 -172 60z"/>
<path d="M2880 2490 l0 -190 130 0 130 0 0 30 0 30 -90 0 -90 0 0 55 0 55 75
0 75 0 0 30 0 30 -75 0 -75 0 0 45 0 45 90 0 90 0 0 30 0 30 -130 0 -130 0 0
-190z"/>
<path d="M3210 2490 l0 -190 35 0 34 0 3 78 c3 75 4 77 30 80 45 5 62 -12 86
-87 l23 -71 39 0 39 0 -25 72 c-13 39 -34 82 -46 95 -12 13 -16 23 -9 23 26 0
61 49 61 85 0 81 -40 105 -175 105 l-95 0 0 -190z m184 114 c19 -18 20 -38 6
-65 -9 -15 -22 -19 -65 -19 l-55 0 0 50 0 50 49 0 c32 0 55 -6 65 -16z"/>
<path d="M3570 2490 l0 -190 93 0 c76 0 100 4 137 23 64 32 84 65 88 146 5 82
-8 128 -46 163 -39 36 -83 48 -183 48 l-89 0 0 -190z m185 116 c18 -8 38 -23
44 -34 19 -35 23 -96 9 -137 -16 -48 -61 -75 -125 -75 l-43 0 0 130 0 130 40
0 c22 0 56 -6 75 -14z"/>
<path d="M4060 2676 c0 -2 -29 -87 -65 -190 l-64 -186 38 0 c37 0 40 2 54 43
l14 42 73 0 73 0 15 -42 c13 -41 15 -43 54 -43 34 0 39 3 33 18 -4 9 -29 80
-55 157 -27 77 -54 155 -60 173 -11 30 -15 32 -61 32 -27 0 -49 -2 -49 -4z
m75 -146 c10 -30 20 -61 23 -67 3 -9 -10 -13 -47 -13 -28 0 -51 3 -51 7 0 21
45 142 51 136 3 -5 15 -33 24 -63z"/>
<path d="M310 2644 c0 -17 23 -34 45 -34 22 0 45 17 45 34 0 6 -5 5 -12 -2 -7
-7 -21 -12 -33 -12 -12 0 -26 5 -33 12 -7 7 -12 8 -12 2z"/>
<path d="M2113 2594 c-3 -8 2 -23 10 -32 15 -15 19 -14 41 7 14 13 29 20 35
16 6 -3 11 -1 11 5 0 21 -31 22 -54 1 -28 -26 -40 -27 -33 -1 6 24 -1 27 -10
4z"/>
<path d="M387 2560 c-19 -23 -47 -26 -65 -8 -7 7 -12 8 -12 2 0 -39 62 -45 86
-9 21 31 14 42 -9 15z"/>
<path d="M2195 2560 c-3 -5 -1 -10 4 -10 6 0 11 5 11 10 0 6 -2 10 -4 10 -3 0
-8 -4 -11 -10z"/>
<path d="M1849 2452 l-25 -58 24 -66 24 -66 62 22 c59 22 62 25 93 87 17 35
30 65 29 66 -2 2 -23 -6 -47 -17 -71 -32 -82 -28 -104 35 -10 30 -21 55 -24
55 -4 0 -18 -26 -32 -58z"/>
<path d="M321 2484 c0 -11 3 -14 6 -6 3 7 2 16 -1 19 -3 4 -6 -2 -5 -13z"/>
<path d="M2106 2484 c-23 -23 -20 -40 4 -19 13 12 27 15 46 11 21 -6 25 -11
21 -31 -2 -14 0 -25 4 -25 13 0 11 54 -3 68 -17 17 -54 15 -72 -4z"/>
<path d="M360 2466 c-53 -14 -41 -27 18 -19 26 4 42 11 42 19 0 16 0 16 -60 0z"/>
<path d="M2080 2401 c0 -5 9 -11 21 -14 14 -4 18 -10 14 -19 -6 -10 -5 -10 5
-1 9 8 19 9 32 2 13 -7 18 -6 18 4 0 8 -17 19 -39 25 -46 14 -51 15 -51 3z"/>
<path d="M2070 2365 c0 -8 4 -15 10 -15 5 0 7 7 4 15 -4 8 -8 15 -10 15 -2 0
-4 -7 -4 -15z"/>
<path d="M372 2358 c-7 -7 -12 -19 -12 -27 0 -10 3 -12 8 -5 12 18 53 36 68
30 9 -3 12 -1 9 4 -9 14 -59 12 -73 -2z"/>
<path d="M432 2312 c-16 -16 -30 -22 -45 -18 -21 5 -21 5 -3 -9 11 -8 23 -15
27 -15 16 0 51 37 48 50 -3 12 -9 10 -27 -8z"/>
<path d="M2074 2325 c11 -8 23 -15 28 -15 4 0 8 -4 8 -9 0 -5 -16 -12 -35 -15
-41 -8 -53 -22 -25 -29 11 -3 20 -2 20 3 0 4 16 11 35 14 50 10 50 20 -3 44
-26 13 -38 16 -28 7z"/>
<path d="M438 2253 c-37 -15 -51 -33 -25 -33 20 1 81 37 71 42 -5 3 -26 -1
-46 -9z"/>
<path d="M2097 2239 c7 -7 15 -10 18 -7 3 3 -2 9 -12 12 -14 6 -15 5 -6 -5z"/>
<path d="M507 2201 c6 -22 -39 -57 -58 -45 -8 4 -9 3 -5 -4 9 -16 49 -15 64 0
14 14 16 54 3 62 -5 4 -7 -3 -4 -13z"/>
<path d="M2000 2212 c0 -5 16 -16 35 -25 36 -17 44 -32 23 -40 -10 -4 -10 -6
-1 -6 7 -1 19 12 28 29 16 32 20 54 5 30 -8 -13 -13 -13 -39 3 -31 18 -51 22
-51 9z"/>
<path d="M1957 2144 c-10 -14 -13 -25 -7 -29 5 -3 10 1 10 9 0 9 6 16 13 16
21 0 28 -12 16 -27 -8 -8 -8 -13 -1 -13 6 0 12 6 15 13 4 9 7 9 17 0 11 -10
11 -15 0 -28 -7 -8 -9 -15 -5 -15 8 0 34 31 35 41 0 4 -17 18 -38 31 l-37 25
-18 -23z"/>
<path d="M500 2120 c-24 -24 -24 -29 -4 -58 18 -27 55 -29 77 -4 22 24 21 45
-1 65 -25 22 -48 21 -72 -3z m73 -14 c7 -19 -38 -60 -57 -53 -9 4 -16 15 -16
26 0 34 62 57 73 27z"/>
<path d="M1920 2091 c0 -6 5 -13 10 -16 19 -11 10 -22 -14 -18 -13 3 -27 0
-30 -6 -5 -7 2 -11 17 -11 16 0 26 -7 30 -20 7 -25 29 -26 51 -1 17 19 17 21
-16 50 -34 32 -48 38 -48 22z m51 -57 c12 -14 11 -16 -5 -13 -11 2 -21 10 -24
17 -5 17 13 15 29 -4z"/>
<path d="M593 2048 c-4 -7 -6 -21 -5 -31 2 -10 -2 -25 -9 -34 -11 -13 -10 -15
6 -11 14 2 20 12 20 30 1 15 4 30 8 34 4 4 7 11 7 16 0 12 -18 10 -27 -4z"/>
<path d="M1090 1755 c-14 -17 0 -21 17 -4 8 8 13 7 18 -2 5 -8 -2 -21 -20 -35
l-29 -23 28 -7 c16 -4 32 -2 39 5 8 8 6 11 -8 11 -19 1 -19 1 -2 15 10 7 17
22 15 32 -4 23 -41 29 -58 8z"/>
<path d="M1172 1748 c-15 -15 -15 -51 0 -66 20 -20 48 -14 58 14 18 47 -25 85
-58 52z m42 -13 c8 -21 -3 -45 -20 -45 -15 0 -18 18 -8 44 8 20 20 20 28 1z"/>
<path d="M1273 1753 c-9 -3 -9 -12 -2 -30 6 -18 6 -30 -2 -39 -9 -11 -6 -14
16 -14 21 0 25 3 17 13 -6 6 -12 26 -14 43 -2 19 -8 29 -15 27z"/>
<path d="M1330 1746 c0 -9 7 -12 20 -9 19 5 19 3 10 -22 -7 -20 -8 -31 0 -39
7 -7 10 -5 10 7 0 10 7 31 15 47 l16 30 -36 0 c-23 0 -35 -5 -35 -14z"/>
<path d="M1318 1470 c-2 -66 0 -80 12 -80 12 0 14 14 12 80 -2 44 -7 80 -12
80 -5 0 -10 -36 -12 -80z"/>
<path d="M1380 1471 c0 -66 3 -81 15 -81 13 0 15 13 13 77 -2 50 -7 78 -15 81
-10 3 -13 -17 -13 -77z"/>
<path d="M1446 1543 c-11 -11 -6 -23 9 -23 8 0 15 4 15 9 0 13 -16 22 -24 14z"/>
<path d="M230 1526 c0 -4 22 -66 40 -111 10 -26 13 -28 21 -13 6 11 3 32 -10
66 -11 28 -17 53 -14 56 4 3 -3 6 -15 6 -12 0 -22 -2 -22 -4z"/>
<path d="M328 1460 c17 -48 28 -68 35 -61 16 16 -22 131 -43 131 -15 0 -15 -7
8 -70z"/>
<path d="M390 1519 c0 -5 5 -7 10 -4 6 3 10 8 10 11 0 2 -4 4 -10 4 -5 0 -10
-5 -10 -11z"/>
<path d="M465 1466 c16 -35 33 -62 38 -59 22 13 -23 123 -51 123 -16 0 -15 -6
13 -64z"/>
<path d="M550 1460 c0 -56 3 -70 15 -70 12 0 15 14 15 70 0 56 -3 70 -15 70
-12 0 -15 -14 -15 -70z"/>
<path d="M627 1523 c-15 -14 -6 -41 24 -69 18 -17 28 -36 25 -46 -5 -21 5 -23
22 -6 20 20 13 42 -24 71 -21 17 -33 35 -30 43 6 14 -6 19 -17 7z"/>
<path d="M740 1471 c0 -40 5 -62 15 -71 9 -7 17 -11 18 -9 1 2 1 34 -1 72 -3
49 -7 67 -18 67 -10 0 -14 -15 -14 -59z"/>
<path d="M927 1523 c-16 -15 -5 -41 29 -71 30 -27 34 -35 24 -47 -15 -18 1
-20 18 -3 20 20 14 40 -24 74 -20 18 -33 38 -29 44 7 11 -8 14 -18 3z"/>
<path d="M1737 1512 c-24 -26 -21 -78 4 -103 24 -24 35 -19 20 9 -14 26 -14
68 -1 93 13 24 -2 25 -23 1z"/>
<path d="M1148 1510 c-8 -23 5 -120 15 -120 8 0 11 20 9 65 -3 58 -14 83 -24
55z"/>
<path d="M1508 1510 c-8 -23 5 -120 15 -120 10 0 13 50 8 123 -1 11 -19 9 -23
-3z"/>
<path d="M2090 1471 c0 -56 7 -81 24 -81 7 0 10 21 8 65 -3 48 -7 65 -18 65
-10 0 -14 -13 -14 -49z"/>
<path d="M1082 1448 c4 -70 28 -78 28 -10 0 36 -4 52 -16 56 -13 5 -15 -3 -12
-46z"/>
<path d="M1446 1493 c-3 -3 -6 -28 -6 -55 0 -36 4 -48 15 -48 11 0 15 12 15
49 0 47 -9 68 -24 54z"/>
<path d="M1976 1493 c-3 -3 -6 -28 -6 -55 0 -36 4 -48 15 -48 11 0 15 12 15
49 0 47 -9 68 -24 54z"/>
<path d="M2028 1445 c3 -39 8 -55 18 -55 18 0 19 81 2 98 -20 20 -23 14 -20
-43z"/>
<path d="M2269 1500 c0 -3 -1 -29 -2 -58 -2 -40 1 -52 13 -52 12 0 14 10 12
48 -2 26 -8 51 -13 57 -5 5 -9 7 -10 5z"/>
<path d="M1040 1475 c0 -8 5 -15 10 -15 6 0 10 7 10 15 0 8 -4 15 -10 15 -5 0
-10 -7 -10 -15z"/>
<path d="M1216 1474 c-10 -25 -7 -59 6 -72 15 -15 45 -16 53 -2 3 5 0 7 -9 4
-19 -7 -36 26 -30 60 5 28 -10 36 -20 10z"/>
<path d="M1266 1476 c3 -9 11 -16 16 -16 13 0 5 23 -10 28 -7 2 -10 -2 -6 -12z"/>
<path d="M1576 1474 c-10 -25 -7 -59 6 -72 15 -15 45 -16 53 -2 4 6 3 10 -2 9
-26 -5 -33 4 -33 41 0 40 -13 53 -24 24z"/>
<path d="M1626 1476 c3 -9 11 -16 16 -16 13 0 5 23 -10 28 -7 2 -10 -2 -6 -12z"/>
<path d="M1873 1479 c-16 -16 -17 -61 -1 -77 15 -15 45 -16 53 -2 4 6 3 10 -2
9 -24 -4 -32 5 -35 42 -2 32 -5 38 -15 28z"/>
<path d="M1920 1476 c0 -9 5 -16 10 -16 6 0 10 4 10 9 0 6 -4 13 -10 16 -5 3
-10 -1 -10 -9z"/>
<path d="M2167 1483 c-12 -11 -8 -68 5 -81 15 -15 45 -16 53 -2 3 5 0 7 -8 4
-21 -8 -40 22 -35 56 4 29 -1 37 -15 23z"/>
<path d="M2213 1475 c0 -8 7 -15 15 -15 7 0 12 5 10 12 -6 18 -25 21 -25 3z"/>
<path d="M2312 1479 c2 -6 8 -10 13 -10 5 0 11 4 13 10 2 6 -4 11 -13 11 -9 0
-15 -5 -13 -11z"/>
<path d="M610 1420 c0 -11 4 -20 9 -20 5 0 7 9 4 20 -3 11 -7 20 -9 20 -2 0
-4 -9 -4 -20z"/>
<path d="M1034 1425 c-7 -18 3 -35 20 -35 9 0 12 9 8 25 -5 28 -20 33 -28 10z"/>
</g>
</svg>
